<svg xmlns="http://www.w3.org/2000/svg" viewBox="0 0 512 512" fill="none">
  <defs>
    <linearGradient id="bg" x1="48" y1="464" x2="464" y2="48" gradientUnits="userSpaceOnUse">
      <stop offset="0%" stop-color="#010303"/>
      <stop offset="100%" stop-color="#0b1211"/>
    </linearGradient>
    <linearGradient id="burst" x1="136" y1="372" x2="376" y2="136" gradientUnits="userSpaceOnUse">
      <stop offset="0%" stop-color="#00C853"/>
      <stop offset="100%" stop-color="#004D40"/>
    </linearGradient>
    <linearGradient id="ripple" x1="180" y1="332" x2="332" y2="180" gradientUnits="userSpaceOnUse">
      <stop offset="0%" stop-color="#55f59f"/>
      <stop offset="100%" stop-color="#00A171"/>
    </linearGradient>
    <filter id="softCore" x="164" y="164" width="184" height="184" filterUnits="userSpaceOnUse" color-interpolation-filters="sRGB">
      <feGaussianBlur stdDeviation="16" result="blur"/>
      <feMerge>
        <feMergeNode in="blur"/>
        <feMergeNode in="SourceGraphic"/>
      </feMerge>
    </filter>
  </defs>

  <rect x="20" y="20" width="472" height="472" rx="116" fill="url(#bg)"/>

  <g fill="url(#burst)">
    <path d="M256 92c-34 0-66 10-93 28 39 1 75 19 99 52 6 8 18 10 27 4 8-6 10-18 4-27-11-15-23-27-37-37z"/>
    <path d="M420 256c0-34-10-66-28-93-1 39-19 75-52 99-8 6-10 18-4 27 6 8 18 10 27 4 15-11 27-23 37-37z"/>
    <path d="M256 420c34 0 66-10 93-28-39-1-75-19-99-52-6-8-18-10-27-4-8 6-10 18-4 27 11 15 23 27 37 37z"/>
    <path d="M92 256c0 34 10 66 28 93 1-39 19-75 52-99 8-6 10-18 4-27-6-8-18-10-27-4-15 11-27 23-37 37z"/>
  </g>

  <g fill="url(#ripple)" opacity="0.92">
    <path d="M256 132c-50 0-91 41-91 91 0 11 9 20 20 20s20-9 20-20c0-28 23-51 51-51 11 0 20-9 20-20s-9-20-20-20z"/>
    <path d="M380 256c0-50-41-91-91-91-11 0-20 9-20 20s9 20 20 20c28 0 51 23 51 51 0 11 9 20 20 20s20-9 20-20z"/>
    <path d="M256 380c50 0 91-41 91-91 0-11-9-20-20-20s-20 9-20 20c0 28-23 51-51 51-11 0-20 9-20 20s9 20 20 20z"/>
    <path d="M132 256c0 50 41 91 91 91 11 0 20-9 20-20s-9-20-20-20c-28 0-51-23-51-51 0-11-9-20-20-20s-20 9-20 20z"/>
  </g>

  <g fill="url(#burst)" opacity="0.95">
    <circle cx="118" cy="176" r="10"/>
    <circle cx="394" cy="336" r="12"/>
    <circle cx="346" cy="110" r="8"/>
    <circle cx="170" cy="404" r="9"/>
  </g>

  <g filter="url(#softCore)">
    <circle cx="256" cy="256" r="28" fill="#9affcc"/>
  </g>
</svg>






