<svg xmlns="http://www.w3.org/2000/svg" shape-rendering="geometricPrecision" text-rendering="geometricPrecision" image-rendering="optimizeQuality" fill-rule="evenodd" clip-rule="evenodd" viewBox="0 0 512 509.64">
  <defs>
    <linearGradient id="chromy-clause-black-box" x1="32" y1="480" x2="480" y2="24" gradientUnits="userSpaceOnUse">
      <stop offset="0%" stop-color="#050505"/>
      <stop offset="100%" stop-color="#141414"/>
    </linearGradient>
    <linearGradient id="chromy-clause-green-mark" x1="96" y1="430" x2="430" y2="96" gradientUnits="userSpaceOnUse">
      <stop offset="0%" stop-color="#22c55e"/>
      <stop offset="100%" stop-color="#16a34a"/>
    </linearGradient>
  </defs>
  <path fill="url(#chromy-clause-black-box)" d="M115.612 0h280.775C459.974 0 512 52.026 512 115.612v278.415c0 63.587-52.026 115.612-115.613 115.612H115.612C52.026 509.639 0 457.614 0 394.027V115.612C0 52.026 52.026 0 115.612 0z"/>
      <g fill="url(#chromy-clause-green-mark)">
    <path d="M122 185c44-50 104-78 166-76 55 2 108 25 146 67l-49 43c-26-27-62-42-99-44-43-2-84 17-114 50l-50-40z"/>
    <path d="M388 255c-22-22-53-35-86-35-61 0-111 45-121 104-6 36 4 73 29 101l-47 42c-37-41-53-99-43-155 16-87 91-153 182-153 51 0 99 20 133 56l-47 40z"/>
    <path d="M103 333l57-25c20 45 62 74 111 77 48 4 93-18 122-58l47 34c-40 56-105 88-173 82-73-5-136-49-164-110z"/>
    <circle cx="408" cy="122" r="18"/>
    <circle cx="118" cy="408" r="12"/>
  </g>
</svg>




